<?xml version="1.0" standalone="no"?>
<!DOCTYPE svg PUBLIC "-//W3C//DTD SVG 20010904//EN"
 "http://www.w3.org/TR/2001/REC-SVG-20010904/DTD/svg10.dtd">
<svg version="1.0" xmlns="http://www.w3.org/2000/svg"
 width="960.000000pt" height="1280.000000pt" viewBox="0 0 960.000000 1280.000000"
 preserveAspectRatio="xMidYMid meet">
<metadata>
Created by potrace 1.15, written by Peter Selinger 2001-2017
</metadata>
<g transform="translate(0.000000,1280.000000) scale(0.100000,-0.100000)"
fill="#000000" stroke="none">
<path d="M2994 12646 c-66 -31 -178 -136 -244 -232 -64 -92 -165 -303 -213
-444 -78 -230 -143 -524 -125 -569 5 -14 7 -40 4 -56 -8 -43 13 -72 42 -56 11
6 30 22 41 37 27 34 90 84 107 84 21 0 17 -28 -6 -40 -12 -7 -20 -21 -20 -38
0 -15 -7 -46 -15 -70 -8 -23 -13 -53 -10 -65 6 -25 -28 -87 -48 -87 -24 0 -71
-72 -131 -199 -65 -138 -89 -217 -75 -242 12 -24 -204 -471 -234 -485 -12 -5
-23 -18 -25 -29 -5 -28 -54 -145 -61 -145 -3 0 -24 7 -46 15 -22 8 -57 14 -77
15 -31 0 -41 -6 -64 -35 -14 -19 -35 -35 -45 -35 -36 0 -56 -34 -63 -106 -4
-38 -14 -94 -22 -125 -8 -31 -14 -79 -14 -105 0 -27 -7 -69 -15 -93 -9 -24
-14 -51 -11 -60 2 -9 7 -26 11 -38 4 -16 1 -23 -15 -28 -17 -5 -19 -9 -9 -21
10 -12 7 -20 -14 -42 -15 -16 -27 -30 -27 -33 0 -8 95 3 108 13 20 17 15 1
-32 -97 -28 -61 -51 -95 -64 -99 -21 -7 -46 -61 -36 -77 5 -9 -177 -400 -343
-734 -46 -93 -95 -179 -109 -191 -27 -22 -32 -57 -16 -116 8 -29 7 -40 -4 -49
-15 -12 -17 -91 -6 -186 l7 -53 88 65 c58 43 87 71 87 84 0 14 15 27 51 43 40
18 52 29 57 53 3 17 5 34 4 39 -7 22 400 918 419 925 22 7 29 23 29 74 0 26 3
47 8 47 4 -1 19 -26 34 -58 82 -174 164 -298 191 -289 6 2 16 18 22 36 10 30
12 32 25 16 8 -9 55 -45 104 -80 55 -38 125 -100 177 -157 93 -100 341 -296
569 -448 69 -45 146 -98 172 -117 53 -38 53 -28 -8 -178 -39 -95 -51 -164 -34
-195 33 -62 190 -69 333 -14 8 3 39 -26 80 -74 81 -96 178 -278 201 -377 9
-38 25 -104 36 -145 11 -41 28 -120 36 -175 9 -55 29 -143 45 -197 16 -54 29
-105 29 -115 0 -10 -16 -31 -35 -46 -45 -36 -61 -69 -70 -142 -7 -57 -11 -63
-65 -115 -32 -30 -65 -69 -74 -87 -8 -17 -42 -57 -75 -88 l-59 -56 -6 -87 c-4
-48 -9 -121 -12 -162 -3 -54 -13 -92 -35 -138 -32 -68 -54 -154 -45 -177 9
-24 -21 -229 -38 -263 -19 -36 -22 -77 -5 -66 21 13 59 114 59 158 0 64 20
155 46 212 12 27 26 75 30 105 3 30 13 78 20 108 7 29 11 57 8 62 -7 12 17 89
28 89 29 0 17 -91 -49 -385 -57 -255 -98 -473 -113 -600 -6 -55 -18 -121 -26
-147 -18 -56 -7 -88 31 -88 33 0 36 -9 24 -71 -6 -30 -14 -202 -18 -384 -8
-322 -9 -332 -35 -405 -26 -76 -27 -76 -73 -88 -49 -14 -94 -53 -195 -172 -25
-30 -50 -59 -54 -63 -5 -4 0 -5 11 -1 18 7 19 6 6 -12 -8 -10 -35 -41 -60 -67
-25 -26 -45 -51 -45 -55 1 -8 -13 -47 -27 -74 -5 -10 -9 -28 -9 -40 l0 -21 25
23 c30 28 31 25 5 -35 -25 -59 -27 -83 -5 -65 14 12 15 10 11 -13 -3 -17 1
-27 11 -31 9 -4 13 -13 9 -22 -4 -9 -1 -22 5 -30 11 -13 16 -58 23 -214 3 -52
8 -110 12 -127 5 -26 3 -33 -9 -33 -16 0 -77 -32 -77 -40 0 -3 18 -13 40 -22
47 -19 51 -35 13 -44 -69 -15 -68 -14 -40 -41 14 -14 36 -26 49 -27 25 -1 26
-17 7 -68 -9 -23 -15 -26 -40 -21 -15 3 -41 2 -56 -2 l-28 -7 34 -30 c30 -27
32 -32 17 -40 -16 -9 -16 -11 -1 -22 17 -12 11 -51 -6 -40 -9 5 -79 -32 -79
-42 0 -2 14 -17 32 -33 l32 -29 -18 -40 c-10 -23 -24 -43 -32 -46 -22 -8 -38
-85 -23 -113 11 -21 10 -25 -9 -39 -12 -8 -34 -36 -49 -62 -14 -26 -34 -56
-44 -67 -9 -11 -25 -36 -36 -56 -10 -20 -29 -56 -42 -80 -19 -34 -26 -63 -29
-130 -5 -105 6 -132 82 -189 87 -66 140 -55 282 55 107 84 147 136 170 222 25
96 55 153 120 225 77 86 112 142 120 195 5 38 12 47 37 58 27 11 28 13 12 22
-17 10 -59 122 -50 132 3 2 5 -1 5 -7 0 -8 18 -12 46 -12 l45 0 -27 35 c-14
19 -35 35 -46 35 -16 0 -17 3 -7 23 21 38 63 87 76 87 7 0 12 8 11 18 -3 36 2
54 15 49 7 -2 30 -2 51 2 l39 6 -27 32 c-17 21 -33 30 -43 26 -12 -5 -14 -1
-8 18 10 32 15 36 25 20 6 -11 18 -12 50 -5 l42 9 -20 25 c-17 21 -18 27 -7
40 8 9 21 42 29 75 12 47 24 68 55 95 21 19 47 50 57 68 10 18 24 30 30 28 16
-6 23 14 17 49 -4 18 -2 26 5 21 7 -4 12 6 14 26 l4 33 11 -35 10 -35 13 48
c9 34 17 47 26 43 10 -4 14 4 14 27 0 18 7 45 15 61 18 34 20 104 3 143 -6 15
-11 64 -10 108 1 44 -4 96 -11 115 -12 33 -9 42 44 165 31 72 80 195 110 275
29 79 93 226 143 325 l89 180 9 -50 c4 -27 19 -86 33 -130 14 -44 40 -140 57
-213 18 -74 37 -134 43 -135 5 -1 20 -13 33 -26 20 -20 28 -22 60 -15 64 14
98 9 132 -19 39 -34 67 -34 110 -2 40 29 51 30 92 9 29 -15 32 -15 51 5 19 18
22 37 27 163 3 79 9 136 13 128 3 -8 33 -94 65 -190 58 -171 113 -386 146
-564 l17 -88 -40 -37 c-56 -52 -84 -119 -87 -208 -2 -55 -8 -80 -27 -110 -28
-44 -42 -93 -27 -93 5 0 7 -13 4 -29 -5 -21 -1 -34 15 -50 12 -12 21 -29 21
-40 0 -10 7 -24 15 -31 8 -7 15 -23 15 -35 0 -12 7 -42 15 -65 8 -23 15 -53
15 -66 0 -12 17 -43 38 -67 32 -37 40 -56 51 -118 7 -41 15 -84 17 -96 2 -13
18 -38 34 -57 36 -41 37 -47 5 -84 -28 -33 -24 -42 17 -42 24 0 28 -4 28 -28
0 -15 -11 -44 -25 -64 l-24 -36 29 -6 c17 -3 30 -11 30 -18 0 -7 7 -26 16 -43
27 -52 55 -175 44 -195 -14 -27 -12 -40 6 -40 12 0 15 -6 11 -22 -26 -107 -30
-148 -19 -173 7 -14 12 -52 12 -84 l0 -59 53 -35 c29 -19 96 -53 148 -75 118
-49 169 -80 234 -142 81 -77 328 -187 446 -197 144 -14 190 104 105 274 -37
74 -63 105 -180 208 -38 33 -80 72 -95 87 -14 15 -38 31 -53 37 -16 6 -28 17
-28 26 0 21 -50 95 -64 95 -14 0 -50 69 -42 78 3 3 0 12 -7 20 -10 13 -9 14 8
9 14 -4 31 3 55 22 l35 29 -35 7 c-19 3 -46 5 -59 3 -16 -2 -26 3 -32 19 -7
19 -5 23 11 23 19 0 80 31 80 40 0 3 -27 12 -60 19 -33 8 -60 17 -60 22 0 5 4
9 9 9 5 0 26 7 46 16 l38 15 -38 24 c-22 12 -45 21 -52 18 -20 -8 -16 7 13 44
19 25 22 33 10 33 -12 0 -16 10 -16 38 0 35 3 38 45 55 25 11 45 22 45 26 0 5
-17 16 -38 25 l-39 18 9 46 c10 59 23 112 43 182 9 30 15 69 14 85 -1 17 3 41
8 55 6 14 16 44 22 67 8 31 16 41 26 36 11 -4 13 -1 8 12 -5 15 -2 17 21 13
l26 -5 -21 36 c-11 20 -15 30 -8 24 21 -21 42 -16 36 8 -4 15 -2 19 9 15 8 -3
14 0 14 7 -1 18 -39 99 -57 119 -18 20 -4 25 15 6 9 -9 12 -8 12 4 0 9 -22 41
-49 70 -43 47 -52 65 -70 136 -27 107 -50 151 -110 204 l-50 43 -13 185 c-9
143 -9 213 0 308 7 67 17 176 24 242 9 100 14 120 28 120 41 0 53 62 26 137
-8 22 -15 84 -17 139 l-4 99 60 7 c33 4 66 10 73 13 16 6 15 46 -2 92 -8 21
-20 70 -26 108 -40 253 -105 541 -160 711 -54 165 -90 291 -90 319 0 6 10 -5
21 -24 12 -19 25 -61 29 -94 5 -34 15 -64 24 -70 21 -16 96 -190 96 -222 0
-14 8 -51 19 -83 10 -31 21 -78 23 -103 5 -48 46 -149 60 -149 4 0 -3 30 -16
67 -16 43 -27 101 -30 157 -4 69 -15 116 -51 220 -27 78 -49 165 -55 212 -5
43 -16 102 -24 129 -9 28 -13 64 -10 82 6 34 -3 46 -86 113 -17 14 -41 48 -55
76 -17 38 -43 68 -95 110 -42 35 -73 69 -77 84 -11 47 -45 105 -90 153 l-45
49 4 91 c3 62 13 116 30 167 14 41 54 170 88 285 75 257 130 427 140 438 4 5
52 -34 106 -85 128 -121 283 -240 431 -332 124 -76 276 -176 306 -199 9 -8 17
-23 17 -34 0 -25 55 -109 145 -221 44 -54 100 -108 165 -157 76 -57 107 -88
139 -139 23 -37 50 -71 60 -78 18 -11 18 -14 5 -40 -8 -16 -23 -56 -34 -91
-26 -82 -19 -235 15 -313 25 -57 35 -67 59 -58 30 12 46 59 45 135 -1 65 1 74
22 91 53 42 58 42 75 3 8 -20 27 -87 41 -148 28 -124 35 -137 68 -137 42 0 48
21 40 141 -4 61 -11 124 -16 141 -12 45 -5 45 21 1 24 -41 59 -186 60 -246 0
-21 5 -47 10 -58 14 -25 66 -26 81 0 11 17 14 17 40 3 22 -14 30 -14 43 -3 9
7 16 20 16 28 0 8 10 23 21 32 18 15 22 30 25 113 4 90 2 101 -32 189 -34 91
-39 97 -134 189 -97 94 -99 96 -103 148 -3 36 0 52 8 52 6 0 26 18 44 40 l32
40 -54 0 c-40 0 -56 -4 -61 -15 -9 -25 -20 -17 -38 28 -22 52 -22 57 0 57 9 0
33 14 52 30 29 25 32 30 15 30 -35 1 -48 15 -36 38 10 19 9 20 -25 10 -44 -12
-57 -3 -20 13 14 7 26 15 26 18 0 4 -20 14 -44 23 -32 12 -47 13 -55 5 -8 -8
-11 -6 -11 6 0 9 4 17 10 17 11 0 25 25 34 63 6 27 6 28 -28 22 -20 -4 -43 -2
-57 6 -37 19 -52 49 -25 49 12 0 46 66 46 90 0 5 -24 1 -54 -10 l-55 -18 -25
33 c-31 40 -32 51 -8 57 17 5 49 75 38 85 -10 11 -84 -17 -90 -33 -6 -15 -8
-15 -26 1 -11 10 -20 27 -20 37 0 11 -4 17 -9 14 -5 -3 -14 1 -22 10 -10 13
-9 16 8 20 20 5 62 89 51 100 -9 9 -74 -19 -90 -40 -15 -18 -19 -19 -28 -6 -5
8 -10 25 -10 36 0 15 -6 21 -17 20 -13 -1 -19 8 -21 32 -3 28 -6 31 -18 21
-11 -9 -21 -9 -40 0 -32 14 -59 14 -85 -2 -19 -11 -27 -5 -92 68 -111 126
-215 222 -304 282 -55 38 -80 60 -76 70 3 8 -4 28 -16 44 -12 16 -19 34 -16
39 3 5 -1 22 -9 37 -8 16 -21 53 -29 83 -17 60 -56 170 -57 157 0 -11 -100 88
-100 100 0 6 6 23 14 39 21 42 30 84 18 84 -21 0 -86 -33 -101 -51 -16 -19
-17 -18 -60 16 -24 19 -48 35 -53 35 -5 0 -8 6 -7 13 1 6 -1 33 -5 60 -7 37
-12 47 -27 47 -14 0 -19 7 -19 26 l0 25 -42 -25 c-31 -18 -43 -32 -43 -48 0
-14 -5 -22 -13 -20 -8 1 -47 8 -88 14 -70 11 -86 19 -65 33 10 6 -29 104 -42
105 -4 0 -13 -11 -19 -25 -15 -32 -28 -32 -28 1 l0 26 -31 -26 c-17 -14 -37
-26 -45 -26 -8 0 -14 -3 -14 -7 0 -5 -4 -14 -9 -22 -7 -11 -16 -7 -43 21 -34
36 -91 57 -123 44 -9 -3 -27 -32 -41 -63 -14 -32 -27 -59 -29 -61 -4 -4 -145
67 -145 73 0 3 11 32 25 65 14 33 25 67 25 77 0 10 12 50 26 88 47 132 54 171
43 233 -8 40 -8 67 0 94 14 46 -6 169 -50 304 -19 61 -27 101 -23 121 18 92
-94 191 -236 208 -131 16 -169 19 -192 17 -14 -2 -29 2 -33 8 -4 7 -11 8 -18
2 -7 -5 -28 -12 -47 -16 -91 -16 -214 -107 -280 -207 -31 -47 -44 -81 -59
-152 -20 -97 -20 -153 -2 -307 16 -132 39 -195 96 -260 17 -19 25 -48 34 -120
7 -52 14 -102 17 -111 4 -13 -7 -17 -62 -22 -36 -2 -70 -9 -76 -15 -6 -6 -35
-8 -69 -5 -37 4 -64 2 -72 -6 -19 -15 -101 1 -137 27 -43 32 -200 100 -260
113 -49 11 -55 10 -70 -8 -14 -18 -22 -19 -85 -12 -97 12 -105 16 -246 110
-88 60 -156 97 -234 127 -70 28 -126 57 -154 81 l-44 38 26 35 c34 44 34 61 0
88 -26 20 -26 21 -10 54 15 32 15 34 -4 39 -14 4 -19 14 -19 42 l0 36 -27 -21
c-33 -25 -43 -14 -43 48 l0 43 -36 -7 c-40 -7 -54 4 -54 45 0 23 0 23 -26 6
-15 -9 -23 -12 -20 -6 4 7 -1 11 -13 11 -19 0 -19 2 -6 40 8 22 12 40 10 40
-31 0 -105 -25 -105 -35 0 -8 -5 -17 -12 -21 -7 -4 -8 -3 -4 5 4 6 -4 32 -18
57 -19 35 -23 50 -16 64 16 29 12 43 -10 37 -12 -3 -20 0 -20 8 0 15 25 73 42
97 10 13 10 25 1 47 -9 25 -8 32 6 45 10 9 31 16 48 16 17 0 41 9 54 19 20 16
22 23 14 47 -8 21 -20 31 -50 39 -21 7 -40 16 -42 22 -5 14 42 109 58 118 6 4
9 24 7 44 -4 51 195 491 222 491 23 0 64 54 96 130 15 33 29 59 31 56 2 -2 -3
-29 -12 -59 -9 -31 -15 -80 -13 -109 3 -46 6 -53 25 -56 85 -12 260 170 366
383 124 250 256 701 242 829 -13 113 -23 119 -82 55 -21 -23 -46 -45 -56 -51
-16 -8 -17 -7 -8 10 5 10 17 24 25 32 9 7 16 20 16 30 0 10 7 34 15 53 8 20
15 42 15 50 0 25 -69 94 -115 116 l-45 21 0 73 c0 90 13 181 46 322 29 123 33
187 14 210 -17 20 -35 18 -96 -9z m-875 -3055 c11 -7 9 -11 -9 -21 -25 -14
-33 -9 -24 14 7 18 13 19 33 7z m378 -401 c2 -19 -8 -26 -20 -14 -7 7 2 34 12
34 4 0 7 -9 8 -20z m4393 -2946 c0 -8 -4 -12 -10 -9 -5 3 -10 10 -10 16 0 5 5
9 10 9 6 0 10 -7 10 -16z m-1240 -394 c0 -11 -2 -20 -4 -20 -2 0 -6 9 -9 20
-3 11 -1 20 4 20 5 0 9 -9 9 -20z m-16 -60 c7 -24 6 -24 -8 -6 -9 11 -16 29
-16 40 1 17 2 18 9 6 5 -8 12 -26 15 -40z m-2214 -280 c0 -19 -32 -90 -41 -90
-9 0 -4 34 12 78 8 22 29 31 29 12z m2374 -162 c7 -29 8 -63 0 -55 -3 3 -9 22
-14 41 -9 39 4 51 14 14z"/>
</g>
</svg>
