<?xml version="1.0" standalone="no"?>
<!DOCTYPE svg PUBLIC "-//W3C//DTD SVG 20010904//EN"
 "http://www.w3.org/TR/2001/REC-SVG-20010904/DTD/svg10.dtd">
<svg version="1.0" xmlns="http://www.w3.org/2000/svg"
 width="1159.000000pt" height="1280.000000pt" viewBox="0 0 1159.000000 1280.000000"
 preserveAspectRatio="xMidYMid meet">
<metadata>
Created by potrace 1.15, written by Peter Selinger 2001-2017
</metadata>
<g transform="translate(0.000000,1280.000000) scale(0.100000,-0.100000)"
fill="#000000" stroke="none">
<path d="M861 12136 c-42 -50 -11 -360 71 -711 41 -177 236 -822 299 -991 28
-76 64 -161 80 -189 24 -43 27 -56 19 -81 -5 -16 -37 -112 -71 -214 -60 -177
-65 -187 -112 -232 -47 -45 -47 -47 -17 -38 60 17 101 52 160 138 72 107 164
201 173 178 4 -9 -1 -17 -13 -21 -11 -3 -30 -19 -44 -36 -21 -24 -25 -40 -25
-92 -1 -99 -1 -101 -17 -118 -9 -10 -15 -42 -17 -88 -2 -65 0 -75 21 -91 17
-14 21 -25 16 -44 -7 -31 12 -92 34 -108 10 -8 17 -27 17 -49 l0 -35 -47 24
c-33 17 -69 26 -120 29 l-73 5 61 -30 c34 -17 94 -53 133 -82 83 -61 154 -90
214 -90 50 0 121 31 136 58 8 16 25 20 100 26 49 4 115 15 145 26 69 23 123
18 128 -14 3 -19 10 -21 67 -24 38 -2 69 -9 75 -16 6 -7 65 -26 131 -41 66
-15 192 -49 280 -75 88 -27 203 -60 255 -74 124 -33 378 -78 392 -70 6 4 37 6
68 5 42 -1 62 3 81 17 22 17 32 18 109 10 57 -7 127 -6 215 2 139 12 202 7
340 -29 39 -10 102 -24 140 -31 39 -7 87 -19 109 -28 43 -18 232 -21 276 -4
14 5 50 28 80 51 30 22 58 41 62 41 15 0 47 -64 52 -105 3 -22 12 -107 21
-190 17 -163 26 -218 86 -520 43 -215 73 -387 84 -475 3 -30 17 -88 31 -128
13 -40 24 -85 24 -101 0 -16 7 -34 15 -41 20 -17 19 -33 -5 -55 -34 -31 -33
-52 3 -113 19 -31 37 -77 40 -100 3 -26 15 -54 29 -69 19 -21 24 -39 28 -113
4 -64 11 -94 23 -108 9 -10 17 -23 17 -28 0 -11 -27 -39 -82 -85 -21 -17 -56
-64 -79 -106 -33 -60 -40 -81 -36 -108 5 -28 -4 -53 -48 -137 -29 -57 -56
-114 -60 -128 -4 -13 -23 -46 -41 -72 -33 -49 -43 -83 -68 -240 -13 -78 -20
-96 -70 -171 -30 -47 -81 -138 -113 -203 -71 -143 -128 -234 -213 -334 -81
-96 -134 -178 -159 -246 -12 -30 -47 -86 -79 -126 -90 -111 -132 -210 -162
-383 -7 -38 -21 -106 -31 -150 -10 -44 -19 -106 -19 -138 0 -54 -2 -60 -40
-96 -22 -21 -43 -51 -46 -68 -5 -24 -15 -35 -45 -49 -86 -38 -229 -240 -245
-345 -6 -40 -62 -159 -74 -159 -3 0 -14 14 -24 31 -14 23 -24 29 -43 27 -21
-2 -37 -21 -81 -98 -115 -198 -157 -322 -221 -648 -22 -109 -49 -224 -60 -257
-12 -33 -21 -62 -21 -65 0 -3 -4 1 -9 8 -6 10 -10 9 -14 -7 -3 -13 -1 -19 5
-15 15 10 -24 -55 -42 -69 -13 -11 -13 -10 0 8 14 19 14 19 -2 6 -10 -7 -16
-16 -13 -20 2 -4 -19 -36 -48 -71 -112 -139 -193 -322 -204 -464 -5 -62 -9
-74 -14 -51 l-7 30 -1 -32 c-1 -24 -6 -33 -18 -33 -9 0 -13 -3 -10 -6 10 -11
-13 -45 -25 -38 -7 5 -8 2 -3 -5 4 -8 -8 -27 -36 -52 -24 -21 -38 -39 -31 -39
7 0 3 -9 -8 -20 -11 -11 -25 -20 -31 -20 -5 0 -8 -4 -4 -9 3 -5 -6 -18 -20
-30 -15 -11 -26 -22 -26 -25 2 -21 0 -26 -8 -21 -5 3 -12 -4 -16 -15 -3 -11
-10 -20 -15 -20 -5 0 -12 -10 -16 -22 -3 -13 -13 -31 -22 -40 -8 -10 -12 -18
-8 -18 4 0 -2 -10 -14 -22 -11 -12 -20 -27 -20 -34 0 -7 -17 -46 -39 -87 -21
-40 -43 -82 -49 -93 -19 -37 -51 -200 -58 -290 -6 -96 -1 -117 39 -162 20 -22
20 -22 1 -37 -10 -8 -16 -15 -12 -15 4 0 -4 -12 -18 -27 -16 -18 -24 -35 -21
-50 2 -12 0 -20 -4 -17 -5 3 -9 -1 -10 -8 0 -7 -2 -21 -4 -30 -2 -10 0 -18 5
-18 4 0 11 -7 14 -16 6 -15 4 -15 -11 -3 -14 11 -13 6 4 -21 13 -21 30 -35 42
-35 10 0 23 -4 28 -9 5 -5 2 -6 -6 -1 -9 5 -12 4 -7 -3 4 -6 13 -9 21 -6 8 4
18 -1 21 -10 5 -13 9 -14 20 -5 8 6 14 7 14 2 0 -5 10 -9 22 -10 11 -1 24 -7
28 -14 6 -8 9 -8 14 0 4 6 11 9 15 7 4 -3 21 -8 37 -11 75 -13 88 -16 96 -21
4 -3 14 -2 21 3 6 4 29 8 50 9 22 0 42 5 45 11 4 5 18 9 32 8 14 -1 31 5 38
14 10 12 12 12 6 1 -7 -12 -5 -13 8 -3 8 7 27 14 42 15 14 1 26 6 26 10 0 4 7
5 15 2 8 -4 15 -1 15 6 0 6 5 8 10 5 6 -3 10 -1 10 4 0 6 6 11 13 11 7 0 30 9
51 20 22 10 43 17 47 14 5 -3 9 0 9 6 0 7 7 10 15 6 9 -3 15 0 15 10 0 11 5
14 16 10 9 -4 24 -1 32 6 12 10 14 10 8 1 -12 -21 18 -15 33 6 9 12 21 17 34
13 13 -3 18 -1 13 6 -7 11 9 25 33 29 8 1 28 12 44 24 16 12 27 15 23 8 -4 -8
-1 -6 7 3 8 10 17 15 20 11 4 -3 7 -1 7 5 0 7 7 12 15 12 9 0 18 6 21 14 3 8
12 12 20 9 10 -3 12 0 8 10 -3 8 -1 18 5 22 6 3 11 12 11 18 0 8 -3 8 -9 -2
-5 -8 -11 -9 -15 -3 -3 5 5 17 19 26 14 9 25 23 25 31 0 8 5 15 10 15 6 0 10
7 10 16 0 8 4 13 9 9 5 -3 13 0 17 6 4 8 3 9 -4 5 -7 -4 -12 -1 -12 9 0 11 5
15 14 12 18 -7 29 21 22 57 -3 14 -1 26 4 26 18 0 -1 26 -20 27 -21 2 -28 -13
-10 -19 6 -2 12 -13 15 -26 2 -13 0 -20 -6 -17 -5 4 -9 13 -9 21 0 8 -5 14
-10 14 -6 0 -9 12 -7 27 3 26 -12 53 -29 53 -5 0 -3 -5 4 -12 7 -7 12 -21 11
-32 0 -20 -1 -20 -8 -2 -4 11 -15 20 -25 22 -11 2 -16 -2 -12 -11 3 -9 0 -12
-8 -9 -8 3 -12 14 -8 26 5 19 3 19 -19 7 -32 -18 -48 -19 -56 -7 -4 7 2 9 15
6 12 -4 20 -2 17 2 -3 5 0 10 7 13 7 2 2 2 -12 0 -20 -4 -23 -2 -12 8 6 7 12
17 12 22 0 4 -12 -5 -26 -20 -24 -26 -25 -27 -21 -5 3 13 1 20 -5 16 -5 -4 -8
-17 -5 -30 3 -18 1 -22 -8 -14 -6 5 -15 7 -18 3 -4 -3 -7 -1 -7 7 0 10 -3 10
-15 0 -9 -7 -18 -10 -22 -6 -3 3 -1 6 6 6 7 0 9 4 6 10 -3 5 -22 8 -41 5 -31
-4 -33 -3 -19 11 8 8 21 12 27 9 7 -4 4 1 -6 9 -11 9 -16 16 -12 16 5 0 2 8
-5 17 -12 14 -12 15 0 9 10 -7 12 -3 6 14 -6 20 -5 22 11 16 15 -6 17 -5 7 5
-7 7 -13 24 -13 37 0 19 4 23 18 17 14 -5 15 -4 5 6 -14 14 -18 53 -5 46 4 -3
7 19 7 49 0 30 3 54 7 54 4 0 4 7 1 17 -5 12 -3 14 7 8 9 -5 11 -4 6 3 -20 33
89 163 218 256 207 151 249 231 216 406 -9 49 -8 57 14 90 55 83 267 349 318
400 39 38 59 68 67 97 9 32 29 59 81 110 39 37 77 71 85 76 16 8 65 98 65 118
0 6 24 50 54 97 29 48 62 105 74 128 11 22 41 62 66 88 25 26 48 62 52 79 3
18 17 45 30 60 13 16 24 35 24 44 0 19 89 107 129 127 39 20 133 125 158 175
15 31 37 52 82 79 152 93 360 308 540 561 123 171 187 286 230 408 41 119 95
197 192 279 25 22 64 62 88 91 l42 51 53 -5 c29 -3 62 -1 72 5 16 9 32 -3 109
-76 50 -48 139 -123 198 -167 l106 -80 -1 -145 c-2 -127 1 -151 19 -191 28
-63 72 -93 126 -86 48 6 81 39 118 118 l23 48 18 -27 c11 -15 43 -79 74 -142
30 -63 68 -135 84 -160 17 -26 30 -49 30 -53 0 -3 -26 -11 -57 -18 -35 -8 -74
-26 -102 -48 -25 -19 -64 -46 -87 -61 -41 -25 -114 -102 -134 -140 -6 -11 -39
-33 -74 -50 -71 -33 -141 -103 -151 -150 -4 -17 -22 -40 -43 -56 -20 -15 -41
-34 -46 -42 -4 -8 -36 -42 -70 -77 -54 -55 -69 -65 -125 -79 -35 -9 -85 -26
-110 -38 -64 -29 -235 -38 -277 -13 -16 9 -21 14 -11 11 57 -18 67 -18 67 -2
0 9 -7 16 -15 16 -18 0 -20 31 -3 48 8 8 9 12 1 12 -6 0 -13 -6 -16 -12 -3
-10 -7 -10 -20 1 -9 7 -14 18 -11 23 3 5 0 9 -7 7 -8 -1 -22 -1 -33 0 -14 1
-16 4 -7 14 6 8 8 17 4 20 -3 4 -1 7 6 7 6 0 11 -6 9 -13 -3 -14 6 -19 27 -11
8 3 12 10 9 15 -3 5 -10 7 -15 4 -12 -8 13 48 26 57 5 4 -2 7 -17 6 -16 -1
-28 -6 -28 -11 0 -4 -4 -5 -10 -2 -5 3 -12 -5 -15 -18 -4 -13 -13 -23 -23 -23
-9 1 -17 -3 -18 -9 0 -5 9 -9 20 -8 16 2 17 1 5 -5 -9 -4 -15 -17 -14 -29 1
-12 -2 -20 -7 -17 -4 3 -8 13 -8 22 0 13 -2 14 -9 3 -7 -11 -9 -11 -14 0 -5
12 -8 11 -17 -1 -10 -13 -11 -13 -7 0 2 8 11 14 20 14 11 -1 15 6 14 24 -1 15
3 27 10 27 15 0 30 15 15 15 -23 0 -42 -13 -42 -29 0 -24 -39 -46 -54 -30 -8
9 -7 11 7 6 9 -4 17 -2 17 3 0 5 -8 11 -17 13 -14 4 -12 5 5 6 30 1 28 16 -3
17 -20 2 -25 -3 -25 -21 0 -32 -25 -52 -38 -29 -6 11 -11 13 -16 5 -4 -6 -2
-11 3 -11 6 0 11 -5 11 -11 0 -6 -7 -8 -16 -5 -8 3 -13 2 -10 -2 2 -4 -2 -16
-11 -27 -14 -19 -14 -19 -11 9 2 18 -2 31 -11 34 -8 3 -11 0 -7 -7 4 -6 1 -11
-9 -11 -9 0 -27 -11 -40 -24 -15 -15 -27 -21 -31 -14 -4 6 0 15 7 20 12 8 11
9 -1 5 -8 -2 -16 -15 -18 -28 -1 -13 -3 -30 -4 -36 -1 -7 -9 -13 -19 -13 -12
0 -16 5 -13 14 3 8 1 17 -5 21 -7 3 -8 0 -5 -9 3 -9 1 -16 -5 -16 -6 0 -11 -4
-11 -10 0 -5 12 -10 28 -10 24 -1 25 -2 10 -14 -10 -7 -17 -15 -15 -17 1 -2
-2 1 -7 7 -12 14 -56 -27 -56 -52 0 -13 -3 -14 -13 -5 -10 8 -14 7 -14 -4 0
-8 5 -15 11 -15 6 0 5 -5 -2 -12 -16 -16 -15 -31 1 -22 6 4 2 -3 -10 -15 -12
-11 -31 -22 -42 -24 -11 -2 -23 -6 -27 -10 -4 -3 2 -5 13 -3 25 5 29 -30 3
-37 -21 -5 -23 -57 -2 -57 6 0 12 -4 12 -10 0 -5 -6 -10 -14 -10 -21 0 -28
-17 -10 -24 10 -4 13 -2 8 7 -4 6 2 4 14 -7 19 -16 22 -36 6 -36 -3 0 -2 5 1
10 3 6 1 10 -4 10 -6 0 -11 -5 -11 -11 0 -5 -4 -7 -10 -4 -5 3 -10 1 -10 -5 0
-6 7 -13 15 -16 8 -4 15 -11 15 -16 0 -6 -8 -7 -17 -4 -16 6 -16 6 0 -11 14
-17 15 -22 2 -46 -8 -15 -10 -25 -5 -22 5 3 11 1 15 -5 3 -5 1 -10 -5 -10 -6
0 -8 -5 -5 -10 4 -6 2 -17 -5 -25 -9 -11 -7 -12 9 -8 12 3 19 9 16 13 -3 5 -1
11 4 15 6 3 8 -5 5 -19 -2 -14 2 -31 11 -39 13 -13 13 -16 -1 -21 -8 -3 -12
-11 -8 -17 4 -7 -1 -18 -11 -26 -11 -7 -15 -13 -10 -13 5 0 17 8 27 17 18 16
18 16 12 -3 -4 -10 -12 -25 -18 -33 -8 -11 -8 -13 0 -8 7 4 18 -1 25 -10 12
-14 11 -15 -9 -9 -13 5 -22 3 -22 -3 0 -6 4 -11 10 -11 5 0 14 -9 19 -19 9
-16 8 -18 -9 -14 -12 3 -20 0 -20 -6 0 -7 4 -9 10 -6 5 3 18 1 27 -4 10 -6 13
-11 6 -11 -6 0 -15 -9 -18 -20 -4 -11 -11 -17 -17 -14 -7 4 -8 2 -4 -5 4 -6
12 -9 17 -6 5 4 9 -1 9 -9 0 -9 -5 -16 -11 -16 -8 0 -9 -4 0 -13 6 -8 8 -17 4
-20 -3 -4 2 -17 13 -29 10 -12 13 -18 6 -14 -12 7 -12 4 -2 -14 6 -12 9 -28 6
-35 -3 -8 -1 -17 5 -20 5 -4 7 -11 3 -16 -3 -5 -1 -16 6 -24 9 -10 7 -16 -6
-23 -9 -5 -14 -15 -10 -21 4 -6 11 -9 16 -6 14 9 22 -14 11 -32 -7 -13 -10
-14 -11 -4 0 8 -3 11 -6 8 -4 -4 1 -18 11 -33 11 -17 12 -24 4 -18 -9 5 -8 -2
4 -19 16 -25 15 -31 -6 -28 -4 1 0 -10 9 -23 9 -14 12 -31 8 -38 -5 -8 -1 -8
11 2 17 14 18 13 12 -2 -3 -10 -2 -18 3 -18 6 0 10 -4 10 -10 0 -5 -6 -7 -14
-4 -11 4 -13 0 -9 -15 3 -12 12 -21 19 -21 8 0 14 -4 14 -10 0 -5 -5 -10 -10
-10 -7 0 -7 -6 0 -20 6 -12 7 -20 1 -20 -5 0 -12 5 -14 10 -3 6 -4 5 -3 -2 1
-7 11 -15 20 -16 15 -3 17 1 11 20 l-7 23 17 -24 c13 -17 15 -25 6 -31 -9 -5
-8 -11 4 -24 9 -9 20 -16 25 -16 4 0 6 -9 3 -20 -3 -12 1 -22 10 -26 9 -3 13
-12 11 -19 -3 -7 0 -16 7 -21 8 -5 10 -3 4 6 -5 9 -4 11 4 6 7 -5 9 -16 5 -28
-5 -18 -3 -20 20 -16 14 3 26 1 26 -3 0 -5 -4 -9 -8 -9 -5 0 -9 -7 -9 -15 0
-12 3 -12 16 -2 12 10 14 9 9 -3 -3 -8 0 -20 7 -27 10 -9 16 -8 29 6 9 10 13
21 9 26 -5 4 -3 5 4 1 7 -4 10 -13 6 -21 -3 -8 0 -15 7 -15 7 0 10 -6 7 -13
-3 -8 1 -14 9 -14 8 0 14 4 14 9 0 4 4 8 9 8 6 0 8 -9 6 -20 -2 -11 0 -22 6
-25 5 -4 9 -1 9 6 0 7 7 4 16 -7 11 -13 14 -14 11 -3 -3 9 1 16 9 16 7 0 11
-4 9 -8 -3 -4 2 -9 10 -12 10 -4 12 -1 9 11 -7 26 12 -16 37 -83 48 -125 144
-256 211 -288 23 -11 56 -15 106 -13 60 3 77 7 98 27 56 53 73 126 85 379 5
113 14 257 19 320 9 114 38 242 56 246 5 1 21 5 37 8 39 9 100 68 122 118 18
40 96 144 121 160 6 4 41 45 77 91 59 74 74 87 124 106 32 12 87 41 123 65 48
33 91 51 165 71 55 15 112 34 127 41 15 8 43 14 62 14 19 0 47 5 63 11 57 22
173 48 244 54 41 4 110 17 154 30 44 12 109 25 145 29 91 8 179 33 216 61 41
31 78 107 71 144 -6 26 -2 29 76 64 45 20 122 46 171 57 118 27 147 42 206
107 109 120 210 351 210 483 0 92 -33 217 -92 350 -28 63 -61 143 -74 178 -82
216 -285 524 -529 802 -63 72 -171 197 -239 279 -68 81 -153 170 -188 198 -88
69 -424 416 -471 486 -24 36 -25 40 -12 76 11 32 11 42 1 57 -7 11 -16 51 -19
90 -6 64 -4 78 19 128 19 42 24 66 20 94 -4 20 -3 57 2 82 4 25 4 66 -1 92 -8
40 -7 52 9 75 10 16 21 51 25 78 4 28 11 62 14 76 5 19 1 31 -18 49 -26 25
-27 20 12 131 11 30 22 93 26 140 4 46 13 106 21 133 8 27 14 67 14 88 0 22 5
49 12 61 6 12 15 51 19 87 4 36 17 101 29 145 20 74 27 85 93 155 40 41 97
112 127 157 30 45 57 82 60 83 3 0 23 -32 45 -72 22 -39 59 -100 83 -135 23
-35 42 -70 42 -79 0 -54 70 -116 175 -155 38 -15 133 -56 210 -91 123 -57 150
-74 219 -139 79 -74 139 -146 169 -206 9 -17 37 -44 63 -60 78 -48 214 -173
214 -197 0 -11 10 -37 21 -56 28 -46 184 -196 279 -268 105 -80 268 -221 274
-239 4 -10 -11 -31 -44 -61 -27 -25 -50 -54 -50 -64 0 -23 55 -58 95 -59 l30
-1 -34 -10 c-19 -5 -52 -27 -73 -49 -31 -32 -37 -44 -32 -65 4 -14 13 -28 20
-31 8 -3 14 -14 14 -25 0 -11 13 -26 31 -36 l31 -17 -6 -187 -6 -187 40 -50
c50 -64 82 -67 150 -17 44 32 46 36 92 182 l47 150 56 17 c31 9 88 17 129 17
59 0 78 4 100 21 31 24 56 69 56 99 0 12 13 32 29 46 33 27 57 107 46 151 -5
21 -1 31 20 47 49 39 51 130 4 189 -16 22 -19 35 -13 75 5 43 3 52 -22 81 -15
18 -52 45 -82 59 -54 27 -55 28 -82 107 -14 44 -35 94 -46 112 -20 31 -20 34
-2 210 10 98 20 221 22 273 4 96 252 1678 265 1693 4 4 27 11 52 15 37 6 45
12 47 32 2 14 11 33 19 42 10 12 13 26 8 45 -6 26 -5 27 12 12 10 -9 28 -19
39 -21 22 -6 22 -3 21 111 -1 121 8 157 55 224 16 22 27 27 61 27 23 0 52 3
64 6 30 8 40 57 19 89 -15 23 -14 25 12 43 42 30 110 62 192 92 l75 28 3 43
c3 44 3 44 -45 63 -78 32 -132 69 -147 101 -8 16 -17 69 -21 118 -7 92 -8 93
-61 78 -20 -6 -47 -5 -73 2 l-41 11 0 83 c0 88 3 84 -53 87 -27 2 -37 25 -38
91 0 33 -6 78 -13 100 l-12 40 -38 -57 c-21 -31 -39 -72 -41 -90 -2 -24 -11
-38 -36 -55 -18 -13 -40 -35 -48 -50 l-14 -27 -19 38 c-16 30 -24 37 -45 34
-22 -3 -29 -13 -50 -73 -14 -38 -29 -74 -34 -79 -5 -6 -23 -3 -46 8 -31 15
-39 15 -48 4 -5 -8 -17 -17 -26 -20 -11 -4 -18 -23 -21 -57 -6 -60 -44 -116
-94 -137 -19 -8 -66 -21 -106 -29 -40 -9 -73 -17 -74 -18 -1 -1 -4 -20 -6 -41
-3 -38 -1 -40 67 -88 106 -73 162 -133 203 -218 33 -69 36 -82 37 -165 0 -84
-3 -95 -37 -169 -21 -43 -38 -83 -38 -88 0 -7 18 -9 46 -5 l46 5 -7 -35 c-7
-38 9 -70 52 -107 l24 -21 -145 -795 c-80 -437 -149 -806 -154 -820 -9 -28
-25 -32 -30 -7 -10 48 -115 127 -170 127 -11 0 -35 23 -58 57 -63 91 -155 152
-243 160 -43 4 -90 22 -200 76 -79 39 -160 83 -180 97 -20 15 -85 95 -144 178
-59 83 -112 154 -117 157 -6 3 -22 32 -37 63 -39 84 -84 141 -110 142 -13 0
-23 5 -23 10 0 6 -6 10 -13 10 -9 0 -22 33 -36 93 -13 50 -29 111 -37 134
l-14 42 51 48 c36 34 63 73 95 138 24 50 44 96 44 101 0 6 27 63 60 127 33 64
60 128 60 141 0 21 -5 24 -58 30 -32 4 -66 4 -75 1 -14 -6 -58 0 -292 36 -151
24 -321 93 -440 181 -176 128 -390 219 -503 213 l-63 -3 30 52 c16 29 48 81
70 116 64 98 75 178 36 252 -13 26 -12 30 14 57 15 16 36 51 46 77 17 45 17
52 1 153 -14 88 -27 128 -78 239 -83 180 -118 212 -352 328 -253 124 -346 143
-497 98 -175 -52 -395 -269 -471 -464 -20 -53 -26 -60 -51 -60 -26 0 -27 -1
-21 -42 3 -24 9 -55 14 -70 5 -16 4 -54 -2 -91 -9 -58 -8 -73 17 -158 l27 -94
-54 -47 c-29 -26 -61 -48 -70 -48 -10 0 -40 -9 -68 -20 -73 -29 -100 -26 -140
15 -18 19 -49 40 -68 46 -45 15 -148 4 -208 -21 -57 -25 -160 -26 -294 -5
-106 18 -239 72 -381 156 -98 58 -146 74 -186 65 -68 -17 -173 -174 -224 -333
l-23 -73 34 -35 33 -34 -32 -61 c-54 -101 -45 -179 25 -216 19 -10 34 -20 34
-22 0 -21 -39 -62 -64 -68 -44 -9 -157 -64 -163 -80 -5 -13 -82 -41 -232 -84
l-73 -21 -87 22 c-47 12 -102 30 -121 39 -19 9 -40 15 -47 13 -6 -2 -19 12
-29 32 -18 39 -32 49 -84 60 -19 4 -46 16 -59 26 -29 23 -103 26 -121 4 -10
-12 -40 -15 -152 -15 -124 0 -139 2 -128 15 10 12 10 15 -3 15 -8 0 -20 -7
-27 -15 -10 -12 -29 -14 -99 -10 -166 11 -287 26 -400 51 -80 18 -120 23 -135
16 -15 -7 -43 -1 -105 19 -47 16 -86 29 -88 29 -2 0 -3 -13 -3 -30 0 -36 -6
-37 -60 -6 -41 23 -41 24 -19 32 22 6 19 9 -24 23 -44 15 -118 65 -323 219
-46 34 -88 62 -92 62 -5 0 -12 27 -16 61 -9 95 -319 1008 -427 1263 -103 242
-223 456 -290 519 -33 30 -51 34 -68 13z m919 -2080 c36 -8 94 -28 130 -45 36
-17 54 -28 40 -24 -14 3 -78 5 -142 4 l-117 -3 -15 37 c-9 21 -16 39 -16 41 0
8 58 3 120 -10z m-193 -812 c-3 -3 -12 -4 -19 -1 -8 3 -5 6 6 6 11 1 17 -2 13
-5z m3993 -5725 c0 -5 -4 -9 -8 -9 -5 0 -9 7 -9 15 0 8 4 12 9 9 4 -3 8 -9 8
-15z m151 -10 c-5 -13 -10 -19 -10 -12 -1 15 10 45 15 40 3 -2 0 -15 -5 -28z
m-251 17 c0 -11 -19 -15 -25 -6 -3 5 1 10 9 10 9 0 16 -2 16 -4z m-69 -52
c-20 -26 -21 -26 -21 -5 0 12 4 19 10 16 6 -3 13 1 16 10 4 9 9 14 11 11 3 -3
-4 -17 -16 -32z m36 14 c-3 -8 -6 -5 -6 6 -1 11 2 17 5 13 3 -3 4 -12 1 -19z
m350 6 c-3 -3 -12 -4 -19 -1 -8 3 -5 6 6 6 11 1 17 -2 13 -5z m-37 -14 c0 -5
-5 -10 -11 -10 -5 0 -7 5 -4 10 3 6 8 10 11 10 2 0 4 -4 4 -10z m-343 -52 c-3
-8 -6 -5 -6 6 -1 11 2 17 5 13 3 -3 4 -12 1 -19z m-82 -49 c-4 -5 -13 -9 -21
-9 -8 0 -14 -5 -14 -12 0 -6 -3 -8 -7 -5 -9 9 27 48 38 41 5 -3 7 -10 4 -15z
m2682 -66 c-3 -10 -5 -4 -5 12 0 17 2 24 5 18 2 -7 2 -21 0 -30z m-2775 -99
c-12 -8 -22 -22 -22 -31 0 -13 -3 -13 -15 -3 -8 7 -15 18 -15 24 0 7 3 6 8 -2
7 -9 13 -8 27 8 10 11 23 20 29 20 6 0 0 -7 -12 -16z m28 -564 c0 -5 -4 -10
-10 -10 -5 0 -10 5 -10 10 0 6 5 10 10 10 6 0 10 -4 10 -10z m0 -80 c0 -5 -4
-10 -10 -10 -5 0 -10 5 -10 10 0 6 5 10 10 10 6 0 10 -4 10 -10z m53 -345 c-3
-9 -8 -14 -10 -11 -3 3 -2 9 2 15 9 16 15 13 8 -4z m207 -379 c0 -3 -4 -8 -10
-11 -5 -3 -10 -1 -10 4 0 6 5 11 10 11 6 0 10 -2 10 -4z"/>
<path d="M5953 4132 c0 -12 5 -22 9 -22 11 0 10 12 -2 30 -7 12 -9 10 -7 -8z"/>
<path d="M5994 4129 c-5 -8 -3 -9 6 -4 7 4 16 2 22 -6 8 -12 9 -12 6 0 -6 20
-24 25 -34 10z"/>
<path d="M5895 4119 c-4 -6 -5 -12 -2 -15 2 -3 7 2 10 11 7 17 1 20 -8 4z"/>
<path d="M6046 4105 c4 -8 8 -15 10 -15 2 0 4 7 4 15 0 8 -4 15 -10 15 -5 0
-7 -7 -4 -15z"/>
<path d="M6100 4116 c0 -2 8 -10 18 -17 15 -13 16 -12 3 4 -13 16 -21 21 -21
13z"/>
<path d="M5985 4060 c-16 -7 -17 -9 -3 -9 9 -1 20 4 23 9 7 11 7 11 -20 0z"/>
<path d="M6015 4049 c-9 -14 26 -52 38 -40 5 5 5 16 -3 28 -11 17 -11 17 -6 0
4 -12 2 -17 -6 -14 -7 2 -12 12 -12 21 2 19 -2 21 -11 5z"/>
<path d="M5937 4033 c-12 -12 -7 -22 8 -17 8 4 15 10 15 15 0 11 -14 12 -23 2z"/>
<path d="M6125 4020 c3 -5 8 -10 11 -10 2 0 4 5 4 10 0 6 -5 10 -11 10 -5 0
-7 -4 -4 -10z"/>
<path d="M5987 3994 c2 -7 11 -10 19 -7 19 7 18 10 -5 16 -13 3 -18 1 -14 -9z"/>
<path d="M6085 3999 c-9 -14 -2 -20 14 -10 8 6 9 11 3 15 -6 3 -14 1 -17 -5z"/>
<path d="M5851 3974 c0 -11 3 -14 6 -6 3 7 2 16 -1 19 -3 4 -6 -2 -5 -13z"/>
<path d="M5940 3979 c0 -5 5 -7 10 -4 6 3 10 8 10 11 0 2 -4 4 -10 4 -5 0 -10
-5 -10 -11z"/>
<path d="M6049 3975 c-1 -3 -2 -8 -3 -12 -1 -5 -5 -13 -9 -20 -5 -7 -1 -9 13
-6 15 4 18 9 10 18 -5 6 -7 15 -3 18 3 4 3 7 0 7 -4 0 -8 -2 -8 -5z"/>
<path d="M5872 3958 c-7 -7 -12 -16 -12 -21 0 -5 7 -1 16 8 9 9 14 18 12 20
-2 3 -10 -1 -16 -7z"/>
<path d="M5910 3950 c6 -11 15 -20 20 -20 17 0 11 15 -11 28 -19 12 -19 11 -9
-8z"/>
<path d="M5996 3954 c-23 -23 -20 -30 4 -9 11 10 20 20 20 22 0 7 -9 2 -24
-13z"/>
<path d="M5953 3925 c0 -8 4 -12 9 -9 5 3 6 10 3 15 -9 13 -12 11 -12 -6z"/>
<path d="M6004 3925 c-4 -8 -10 -13 -14 -10 -5 3 -11 1 -14 -4 -3 -5 3 -11 13
-14 14 -3 20 2 24 19 5 27 -1 32 -9 9z"/>
<path d="M6053 3916 c-9 -11 -8 -15 6 -19 11 -3 17 2 18 14 2 22 -7 24 -24 5z"/>
<path d="M6095 3909 c-11 -17 1 -21 15 -4 8 9 8 15 2 15 -6 0 -14 -5 -17 -11z"/>
<path d="M5881 3887 c-15 -19 -2 -29 15 -12 8 7 14 16 14 19 0 11 -17 6 -29
-7z"/>
<path d="M5945 3890 c3 -5 15 -15 27 -21 16 -8 19 -8 16 2 -2 6 -14 16 -27 20
-14 6 -20 5 -16 -1z"/>
<path d="M6047 3879 c7 -7 15 -10 18 -7 3 3 -2 9 -12 12 -14 6 -15 5 -6 -5z"/>
<path d="M5960 3853 c0 -14 -38 -24 -44 -12 -2 5 -3 4 -2 -3 1 -6 7 -13 12
-15 14 -5 50 24 41 33 -4 4 -7 3 -7 -3z"/>
<path d="M6005 3850 c3 -5 8 -10 11 -10 2 0 4 5 4 10 0 6 -5 10 -11 10 -5 0
-7 -4 -4 -10z"/>
<path d="M5985 3830 c-3 -5 1 -10 10 -10 9 0 13 5 10 10 -3 6 -8 10 -10 10 -2
0 -7 -4 -10 -10z"/>
<path d="M5830 3800 c6 -11 12 -20 14 -20 2 0 2 9 -1 20 -3 11 -9 20 -15 20
-5 0 -4 -9 2 -20z"/>
<path d="M5965 3769 c-4 -6 -5 -12 -2 -15 2 -3 7 2 10 11 7 17 1 20 -8 4z"/>
<path d="M5861 3752 c7 -10 17 -19 24 -19 10 0 10 5 2 19 -7 10 -18 18 -24 18
-10 0 -11 -4 -2 -18z"/>
<path d="M5806 3725 c4 -8 16 -14 28 -14 16 1 17 2 4 6 -10 2 -18 9 -18 14 0
5 -4 9 -10 9 -5 0 -7 -7 -4 -15z"/>
<path d="M5765 3720 c-3 -5 -1 -10 4 -10 6 0 11 5 11 10 0 6 -2 10 -4 10 -3 0
-8 -4 -11 -10z"/>
<path d="M5886 3707 c3 -10 9 -15 12 -12 3 3 0 11 -7 18 -10 9 -11 8 -5 -6z"/>
<path d="M5966 3709 c3 -5 12 -9 21 -9 19 0 9 13 -12 16 -8 1 -13 -2 -9 -7z"/>
<path d="M5925 3690 c-3 -6 1 -7 9 -4 18 7 21 14 7 14 -6 0 -13 -4 -16 -10z"/>
<path d="M5707 3677 c-3 -7 3 -13 13 -13 10 0 16 6 13 13 -3 7 -9 13 -13 13
-4 0 -10 -6 -13 -13z"/>
<path d="M5823 3668 c3 -10 2 -18 -3 -18 -6 0 -10 -4 -10 -10 0 -5 7 -7 16 -3
13 5 15 2 9 -18 -4 -13 -4 -21 0 -17 15 14 13 57 -3 70 -13 11 -15 10 -9 -4z"/>
<path d="M5870 3665 c-7 -9 -8 -15 -2 -15 5 0 12 7 16 15 3 8 4 15 2 15 -2 0
-9 -7 -16 -15z"/>
<path d="M5645 3659 c-4 -6 -5 -12 -2 -15 2 -3 7 2 10 11 7 17 1 20 -8 4z"/>
<path d="M5610 3640 c0 -5 5 -10 11 -10 5 0 7 5 4 10 -3 6 -8 10 -11 10 -2 0
-4 -4 -4 -10z"/>
<path d="M5864 3622 c0 -10 5 -19 12 -19 6 0 9 9 6 19 -2 10 -7 18 -11 18 -4
0 -7 -8 -7 -18z"/>
<path d="M5530 3599 c0 -5 5 -7 10 -4 6 3 10 8 10 11 0 2 -4 4 -10 4 -5 0 -10
-5 -10 -11z"/>
<path d="M5805 3590 c3 -5 11 -10 16 -10 6 0 7 5 4 10 -3 6 -11 10 -16 10 -6
0 -7 -4 -4 -10z"/>
<path d="M5840 3570 c0 -5 5 -10 10 -10 6 0 10 -6 10 -14 0 -7 9 -16 20 -19
27 -7 25 -1 -6 28 -30 28 -34 30 -34 15z"/>
<path d="M5787 3546 c-4 -10 0 -12 14 -9 10 3 16 9 13 14 -8 13 -21 11 -27 -5z"/>
<path d="M5832 3508 c-16 -16 -15 -29 1 -22 8 3 14 11 14 19 0 18 0 18 -15 3z"/>
<path d="M5860 3489 c-7 -11 -9 -23 -6 -27 3 -3 6 0 6 7 0 7 4 10 8 7 4 -2 8
4 8 15 0 24 -3 24 -16 -2z"/>
<path d="M5230 3302 c0 -6 -8 -9 -17 -6 -15 5 -16 4 -3 -5 16 -11 40 3 27 16
-4 3 -7 1 -7 -5z"/>
<path d="M5204 2883 c2 -9 8 -19 15 -21 10 -3 10 0 2 17 -14 25 -20 27 -17 4z"/>
<path d="M3026 2475 c4 -8 11 -15 16 -15 6 0 5 6 -2 15 -7 8 -14 15 -16 15 -2
0 -1 -7 2 -15z"/>
<path d="M3188 1053 c7 -3 16 -2 19 1 4 3 -2 6 -13 5 -11 0 -14 -3 -6 -6z"/>
<path d="M3235 1030 c-3 -5 -1 -10 4 -10 6 0 11 5 11 10 0 6 -2 10 -4 10 -3 0
-8 -4 -11 -10z"/>
<path d="M3476 993 c-6 -14 -5 -15 5 -6 7 7 10 15 7 18 -3 3 -9 -2 -12 -12z"/>
<path d="M3500 895 c0 -9 5 -15 11 -13 6 2 11 8 11 13 0 5 -5 11 -11 13 -6 2
-11 -4 -11 -13z"/>
</g>
</svg>
